# xmcd
#
# Track frame offsets:
# 150
# 16949
# 35686
# 55143
# 76903
# 97363
# 113189
# 131776
# 151525
# 170415
# 190992
# 218151
# 229950
#
# Disc length: 3323 seconds
#
# Revision: 0
# Processed by: cddbd v1.5.2PL0 Copyright (c) Steve Scherf et al.
# Submitted via: Audion 3.0.2 (http://www.panic.com/audion/)
#
DISCID=ad0cf90d
DTITLE=Terra Naomi - Live and Unplugged
DYEAR=1900
DGENRE=
TTITLE0=If I could stay
TTITLE1=I'll be waiting
TTITLE2=To know I'm OK
TTITLE3=Bridge over troubled water
TTITLE4=Say it is possible
TTITLE5=Jenny
TTITLE6=Up Here
TTITLE7=Someday soon
TTITLE8=Billie Jean
TTITLE9=The vicodin song
TTITLE10=Flesh for bones
TTITLE11=In the summertime
TTITLE12=Halleluiah
EXTD=
EXTT0=
EXTT1=
EXTT2=
EXTT3=
EXTT4=
EXTT5=
EXTT6=
EXTT7=
EXTT8=
EXTT9=
EXTT10=
EXTT11=
EXTT12=
PLAYORDER=
